<svg width="17" height="22" viewBox="0 0 17 22" fill="none" xmlns="http://www.w3.org/2000/svg">
<path d="M8.07917 11.1176C7.87083 10.4509 7.875 9.16344 7.99583 9.16344C8.34583 9.16344 8.3125 10.7009 8.07917 11.1176ZM8.00833 13.0843C7.6875 13.9259 7.2875 14.8884 6.825 15.6968C7.5875 15.4051 8.45 14.9801 9.44583 14.7843C8.91667 14.3843 8.40833 13.8093 8.00833 13.0843ZM4.0875 18.2843C4.0875 18.3176 4.6375 18.0593 5.54167 16.6093C5.2625 16.8718 4.32917 17.6301 4.0875 18.2843ZM10.8333 7.11344H16.5V20.7801C16.5 21.3343 16.0542 21.7801 15.5 21.7801H1.5C0.945833 21.7801 0.5 21.3343 0.5 20.7801V1.44678C0.5 0.892611 0.945833 0.446777 1.5 0.446777H9.83333V6.11344C9.83333 6.66344 10.2833 7.11344 10.8333 7.11344ZM10.5 14.2718C9.66667 13.7634 9.1125 13.0634 8.72083 12.0301C8.90833 11.2593 9.20417 10.0884 8.97917 9.35511C8.78333 8.13011 7.2125 8.25094 6.9875 9.07178C6.77917 9.83428 6.97083 10.9093 7.325 12.2801C6.84167 13.4301 6.12917 14.9718 5.625 15.8551C5.62083 15.8551 5.62083 15.8593 5.61667 15.8593C4.4875 16.4384 2.55 17.7134 3.34583 18.6926C3.57917 18.9801 4.0125 19.1093 4.24167 19.1093C4.9875 19.1093 5.72917 18.3593 6.7875 16.5343C7.8625 16.1801 9.04167 15.7384 10.0792 15.5676C10.9833 16.0593 12.0417 16.3801 12.7458 16.3801C13.9625 16.3801 14.0458 15.0468 13.5667 14.5718C12.9875 14.0051 11.3042 14.1676 10.5 14.2718ZM16.2083 4.82178L12.125 0.738444C11.9375 0.550944 11.6833 0.446777 11.4167 0.446777H11.1667V5.78011H16.5V5.52594C16.5 5.26344 16.3958 5.00928 16.2083 4.82178ZM13.1208 15.4593C13.2917 15.3468 13.0167 14.9634 11.3375 15.0843C12.8833 15.7426 13.1208 15.4593 13.1208 15.4593Z" fill="#595959"/>
</svg>
